<svg width="31" height="28" viewBox="0 0 31 28" fill="none" xmlns="http://www.w3.org/2000/svg">
<path d="M15.6458 23.0521L15.5 23.1979L15.3395 23.0521C8.41246 16.7667 3.83329 12.6104 3.83329 8.39583C3.83329 5.47917 6.02079 3.29167 8.93746 3.29167C11.1833 3.29167 13.3708 4.75 14.1437 6.73333H16.8562C17.6291 4.75 19.8166 3.29167 22.0625 3.29167C24.9791 3.29167 27.1666 5.47917 27.1666 8.39583C27.1666 12.6104 22.5875 16.7667 15.6458 23.0521ZM22.0625 0.375C19.525 0.375 17.0895 1.55625 15.5 3.40833C13.9104 1.55625 11.475 0.375 8.93746 0.375C4.44579 0.375 0.916626 3.88958 0.916626 8.39583C0.916626 13.8938 5.87496 18.4 13.3854 25.2104L15.5 27.1354L17.6145 25.2104C25.125 18.4 30.0833 13.8938 30.0833 8.39583C30.0833 3.88958 26.5541 0.375 22.0625 0.375Z" fill="#724B50"/>
</svg>
