<svg width="25" height="25" viewBox="0 0 25 25" fill="none" xmlns="http://www.w3.org/2000/svg">
<path d="M12.5 1.83331C13.7819 1.83331 15.0113 2.34254 15.9177 3.24896C16.8242 4.15539 17.3334 5.38477 17.3334 6.66665C17.3334 7.94853 16.8242 9.1779 15.9177 10.0843C15.0113 10.9908 13.7819 11.5 12.5 11.5C11.2182 11.5 9.98878 10.9908 9.08236 10.0843C8.17593 9.1779 7.66671 7.94853 7.66671 6.66665C7.66671 5.38477 8.17593 4.15539 9.08236 3.24896C9.98878 2.34254 11.2182 1.83331 12.5 1.83331ZM12.5 16.4166C15.6015 16.4166 18.3586 17.0468 20.3033 18.0191C22.3076 19.0213 23.1667 20.2211 23.1667 21.25V23.1666H1.83337V21.25C1.83337 20.2211 2.69245 19.0213 4.69673 18.0191C6.64146 17.0468 9.39858 16.4166 12.5 16.4166Z" stroke="#724B50" stroke-width="2"/>
</svg>
