<svg width="27" height="27" viewBox="0 0 27 27" fill="none" xmlns="http://www.w3.org/2000/svg">
<path d="M24.5833 26.625L15.3958 17.4375C14.6667 18.0208 13.8281 18.4826 12.8802 18.8229C11.9323 19.1632 10.9236 19.3333 9.85417 19.3333C7.20486 19.3333 4.96292 18.416 3.12833 16.5815C1.29278 14.7459 0.375 12.5035 0.375 9.85417C0.375 7.20486 1.29278 4.96243 3.12833 3.12688C4.96292 1.29229 7.20486 0.375 9.85417 0.375C12.5035 0.375 14.7459 1.29229 16.5815 3.12688C18.416 4.96243 19.3333 7.20486 19.3333 9.85417C19.3333 10.9236 19.1632 11.9323 18.8229 12.8802C18.4826 13.8281 18.0208 14.6667 17.4375 15.3958L26.625 24.5833L24.5833 26.625ZM9.85417 16.4167C11.6771 16.4167 13.2268 15.7789 14.5033 14.5033C15.7789 13.2268 16.4167 11.6771 16.4167 9.85417C16.4167 8.03125 15.7789 6.48153 14.5033 5.205C13.2268 3.92944 11.6771 3.29167 9.85417 3.29167C8.03125 3.29167 6.48153 3.92944 5.205 5.205C3.92944 6.48153 3.29167 8.03125 3.29167 9.85417C3.29167 11.6771 3.92944 13.2268 5.205 14.5033C6.48153 15.7789 8.03125 16.4167 9.85417 16.4167Z" fill="#724B50"/>
</svg>
