<svg width="21" height="21" viewBox="0 0 21 21" fill="none" xmlns="http://www.w3.org/2000/svg">
<path d="M11.6375 15.1156C11.4625 14.9406 11.3785 14.7291 11.3855 14.4812C11.3925 14.2333 11.4838 14.0218 11.6594 13.8468L14.1313 11.375H4.375C4.12709 11.375 3.91913 11.291 3.75113 11.123C3.58313 10.955 3.49942 10.7473 3.5 10.5C3.5 10.252 3.584 10.0441 3.752 9.87608C3.92 9.70808 4.12767 9.62437 4.375 9.62495H14.1313L11.6375 7.1312C11.4625 6.9562 11.375 6.74824 11.375 6.50733C11.375 6.26641 11.4625 6.05874 11.6375 5.88433C11.8125 5.70933 12.0205 5.62183 12.2614 5.62183C12.5023 5.62183 12.71 5.70933 12.8844 5.88433L16.8875 9.88745C16.975 9.97495 17.0371 10.0697 17.0739 10.1718C17.1106 10.2739 17.1287 10.3833 17.1281 10.5C17.1281 10.6166 17.1098 10.726 17.073 10.8281C17.0363 10.9302 16.9744 11.025 16.8875 11.1125L12.8625 15.1375C12.7021 15.2979 12.5017 15.3781 12.2614 15.3781C12.021 15.3781 11.8131 15.2906 11.6375 15.1156Z" fill="white"/>
</svg>
