<svg width="33" height="29" viewBox="0 0 33 29" fill="none" xmlns="http://www.w3.org/2000/svg">
<path d="M27.5208 26.7917C28.5651 26.7917 29.5155 26.4227 30.2546 25.661C30.9697 24.924 31.3333 24.0007 31.3333 22.9792C31.3333 21.9491 30.9812 21.0037 30.2387 20.2612C29.4963 19.5188 28.5509 19.1667 27.5208 19.1667C26.4989 19.1667 25.5749 19.5298 24.8374 20.2454C24.0754 20.9848 23.707 21.9357 23.7083 22.9803C23.7086 24.016 24.0888 24.9446 24.8229 25.6786C25.5567 26.4124 26.4851 26.7927 27.5208 26.7917ZM27.5208 26.7917V25.2917L27.5232 26.7917C27.5224 26.7917 27.5216 26.7917 27.5208 26.7917ZM8.20829 10.4917V10.1929L8.09384 9.91698L5.2803 3.13365L4.8965 2.20833H3.89475H2.04163V2.125H4.97215L7.13309 7.36366L7.5159 8.29167H8.51975H31.2979C31.3261 8.29167 31.3457 8.29351 31.358 8.29525C31.3609 8.29899 31.3643 8.30363 31.3683 8.30929L31.3601 8.3241L31.3498 8.34431L26.956 16.9391L26.0135 18.7829L28.0592 19.1038C29.0217 19.2547 29.8065 19.6841 30.4645 20.4275C31.1038 21.1498 31.4174 21.9758 31.4166 22.978V22.9792C31.4166 24.0779 31.0499 24.9703 30.2891 25.7409C29.5333 26.5064 28.6526 26.875 27.5578 26.875C26.4321 26.875 25.5418 26.5013 24.7911 25.7409C24.0302 24.9703 23.6635 24.0779 23.6635 22.9792C23.6635 22.5904 23.712 22.2594 23.7953 21.9764L22.7682 21.6743L23.7953 21.9764C23.8906 21.6521 24.0254 21.3326 24.2032 21.0166L25.3383 18.9987L23.0326 18.7875L17.9837 18.325L17.0942 18.2435L16.5988 18.9867L11.9738 25.9242L11.9689 25.9315L11.9642 25.9388C11.7642 26.2464 11.5203 26.4687 11.2212 26.629C10.9087 26.7965 10.5932 26.875 10.2541 26.875C9.68708 26.875 9.23594 26.6881 8.81965 26.2638C8.39622 25.8323 8.20829 25.3663 8.20829 24.7906V10.4917ZM11.7321 26.1234L11.8836 25.8984L15.6222 20.3484L17.0207 18.2723L14.5304 18.0182C13.4077 17.9036 12.6817 17.6473 12.2366 17.3535L11.4104 18.6055L12.2366 17.3535C11.6203 16.9468 11.2403 16.5753 11.0213 16.2618L8.29163 12.3545V17.1208V24.8292C8.29163 25.4298 8.56531 25.9771 9.04579 26.3375C9.40821 26.6093 9.83964 26.7531 10.2927 26.7531C10.5778 26.7531 10.7971 26.6737 10.8817 26.6411C10.9908 26.5992 11.0823 26.5518 11.1464 26.5162C11.2755 26.4445 11.4015 26.3595 11.5114 26.281L11.7321 26.1234Z" stroke="#724B50" stroke-width="3"/>
</svg>
