<svg width="15" height="13" viewBox="0 0 15 13" fill="none" xmlns="http://www.w3.org/2000/svg">
<path d="M12.5 12.0633C12.9237 12.0633 13.3082 11.9263 13.6137 11.6336C13.9129 11.347 14.0714 10.9823 14.0714 10.5675C14.0714 10.1473 13.9171 9.77462 13.6082 9.48761C13.302 9.20298 12.9194 9.07171 12.5 9.07171C12.0868 9.07171 11.7121 9.20636 11.4059 9.48255C11.0892 9.76815 10.928 10.1425 10.9286 10.5679C10.9287 10.9879 11.0942 11.3542 11.401 11.6394C11.7065 11.9233 12.0827 12.0638 12.5 12.0633ZM12.5 12.0633V11.5633L12.5007 12.0633C12.5005 12.0633 12.5002 12.0633 12.5 12.0633ZM3.35714 5.19017V5.08366L3.31374 4.9864L2.01017 2.06538L1.87797 1.76915H1.55357H0.5V1.44141H2.19274L3.23942 3.79972L3.37131 4.09688H3.69643H14.25C14.3733 4.09688 14.4199 4.13205 14.4614 4.19325C14.4757 4.21427 14.4819 4.22847 14.4844 4.23582C14.4868 4.24265 14.4868 4.24535 14.4868 4.2455V4.24552C14.4868 4.24585 14.4869 4.24919 14.4847 4.25707C14.4822 4.2657 14.4763 4.28155 14.4626 4.30486L14.4585 4.31163L14.4548 4.31852L12.419 8.0196L12.0716 8.65132L12.785 8.75534C13.285 8.82823 13.6908 9.03749 14.0222 9.38544C14.3461 9.72555 14.5004 10.1115 14.5 10.5671V10.5675C14.5 11.0666 14.3195 11.484 13.9344 11.8465C13.5498 12.2086 13.0875 12.3911 12.5171 12.3911C11.9336 12.3911 11.4665 12.2071 11.0834 11.8465C10.6983 11.484 10.5179 11.0666 10.5179 10.5675C10.5179 10.3913 10.5415 10.2381 10.5838 10.1043L10.1071 9.95343L10.5838 10.1043C10.6308 9.95582 10.6973 9.80937 10.7849 9.66463L11.2018 8.97584L10.3996 8.90755L8.06027 8.70838L7.77717 8.68428L7.61157 8.91515L5.46871 11.9026L5.46868 11.9025L5.46526 11.9074C5.35887 12.0596 5.22386 12.1761 5.05346 12.261C4.87854 12.3481 4.69607 12.3911 4.5 12.3911C4.17246 12.3911 3.90948 12.2857 3.68315 12.0713C3.45534 11.8555 3.35714 11.6221 3.35714 11.3476V5.19017ZM4.95511 11.8803L5.03039 11.8303L5.08342 11.7572L6.81556 9.36723L7.32911 8.65866L6.45792 8.57604C5.91591 8.52464 5.5412 8.40762 5.29715 8.25791C4.9971 8.07386 4.80223 7.89983 4.6854 7.74439L3.78571 6.54745V8.04481V11.3642C3.78571 11.5923 3.8973 11.7859 4.07122 11.9071C4.20497 12.0003 4.35886 12.0467 4.51786 12.0467C4.60821 12.0467 4.6792 12.0232 4.7096 12.0124C4.7474 11.9988 4.78036 11.9831 4.80529 11.9702C4.85534 11.9444 4.90673 11.9124 4.95511 11.8803Z" stroke="white"/>
</svg>
